<?xml version="1.0" standalone="no"?>
<!DOCTYPE svg PUBLIC "-//W3C//DTD SVG 20010904//EN"
 "http://www.w3.org/TR/2001/REC-SVG-20010904/DTD/svg10.dtd">
<svg version="1.0" xmlns="http://www.w3.org/2000/svg"
 width="776.000000pt" height="158.000000pt" viewBox="0 0 776.000000 158.000000"
 preserveAspectRatio="xMidYMid meet">

<g transform="translate(0.000000,158.000000) scale(0.100000,-0.100000)"
fill="#000000" stroke="none">
<path d="M854 1536 c-147 -48 -292 -197 -371 -381 -44 -100 -59 -153 -89 -300
-48 -241 -94 -430 -117 -475 -20 -40 -28 -47 -86 -67 -87 -31 -113 -56 -109
-107 5 -61 21 -65 130 -32 142 44 230 45 411 7 167 -35 279 -40 333 -15 98 47
157 193 104 255 -20 23 -21 23 -33 5 -71 -111 -125 -127 -337 -101 -74 10
-161 20 -192 22 l-58 5 30 38 c47 59 117 216 144 320 13 52 43 178 65 280 48
215 71 270 142 345 86 91 169 119 208 69 38 -48 21 -135 -54 -279 -47 -89 -53
-113 -33 -133 19 -19 50 -14 116 19 117 58 176 163 170 300 -4 103 -39 161
-121 203 -68 35 -184 45 -253 22z"/>
<path d="M4217 1535 c-345 -95 -637 -496 -654 -900 -4 -91 -2 -135 11 -183 38
-149 119 -248 238 -293 79 -29 209 -31 308 -4 120 33 287 129 354 204 11 11
22 21 26 21 4 0 10 -25 12 -55 6 -71 46 -131 108 -163 89 -46 225 -6 332 99
55 54 58 56 58 30 0 -14 9 -45 20 -69 27 -59 88 -87 168 -78 75 9 179 65 241
131 27 29 52 50 55 47 4 -3 6 -24 6 -48 0 -79 72 -131 169 -122 75 8 158 54
243 138 l76 76 7 -45 c4 -25 13 -58 20 -72 18 -35 79 -87 111 -95 84 -21 234
39 327 130 30 30 58 52 61 49 3 -4 6 -17 6 -30 0 -34 24 -75 64 -111 39 -34
88 -47 144 -38 59 9 176 72 235 126 30 28 60 50 66 50 6 0 11 -12 11 -26 0
-72 87 -143 192 -159 143 -21 438 127 438 221 0 17 -6 39 -14 49 -13 18 -15
18 -53 -16 -65 -59 -147 -93 -230 -97 -69 -4 -74 -3 -103 26 -44 44 -40 69 13
82 133 35 228 84 302 157 74 73 108 140 108 218 -1 123 -73 205 -183 205 -48
0 -163 -35 -216 -65 -108 -63 -229 -250 -255 -394 -12 -71 -14 -73 -81 -136
-76 -70 -138 -105 -186 -105 -39 0 -52 26 -52 103 1 92 14 132 62 189 162 191
323 519 344 698 5 47 3 60 -18 89 -36 53 -71 74 -123 74 -92 0 -205 -108 -290
-275 -70 -139 -148 -410 -175 -611 -11 -81 -16 -93 -52 -135 -80 -93 -141
-132 -207 -132 -51 0 -61 17 -61 102 1 96 13 131 67 195 122 142 237 346 299
528 45 133 51 217 18 261 -77 104 -197 89 -308 -38 -113 -129 -228 -437 -271
-724 -16 -108 -24 -123 -123 -216 -71 -66 -146 -106 -178 -94 -27 10 -11 98
47 254 112 302 125 355 92 387 -21 22 -100 15 -146 -13 -49 -28 -72 -72 -118
-215 -54 -173 -88 -236 -180 -329 -100 -102 -168 -131 -182 -77 -6 24 52 200
128 388 30 75 57 151 61 168 14 70 -65 120 -139 89 -20 -8 -37 -20 -37 -25 0
-17 -13 -13 -87 21 -182 85 -369 17 -521 -190 -57 -77 -77 -114 -102 -187 -26
-75 -119 -160 -242 -222 -39 -20 -72 -27 -138 -31 -129 -7 -182 9 -245 72 -60
60 -74 98 -81 221 -11 167 57 379 176 555 131 193 347 312 425 233 14 -14 16
-31 13 -97 -5 -89 -24 -138 -104 -274 -35 -58 -44 -83 -42 -111 3 -30 8 -37
34 -44 129 -37 278 151 291 369 7 103 -13 170 -67 224 -72 72 -203 98 -323 65z
m2263 -283 c0 -51 -81 -267 -135 -362 -72 -127 -135 -219 -135 -198 0 20 61
236 94 329 40 116 142 279 167 264 5 -4 9 -18 9 -33z m479 -140 c-17 -53 -53
-140 -79 -192 -46 -91 -150 -270 -150 -257 0 18 55 224 82 307 34 106 107 253
147 296 l26 29 3 -43 c2 -29 -8 -76 -29 -140z m552 -238 c19 -23 14 -101 -10
-166 -28 -73 -116 -157 -196 -187 -63 -24 -75 -25 -75 -10 0 37 37 163 62 210
64 121 178 202 219 153z m-2428 -54 c38 -30 42 -67 17 -157 -54 -191 -141
-303 -261 -333 -91 -23 -136 26 -126 139 15 172 102 317 216 357 56 20 124 17
154 -6z"/>
<path d="M7626 1404 c-9 -8 -28 -36 -43 -62 -15 -26 -67 -86 -115 -133 -66
-65 -88 -92 -88 -112 0 -59 60 -52 165 19 33 23 82 53 109 69 59 34 86 76 86
132 0 75 -71 130 -114 87z"/>
<path d="M5845 1334 c-84 -43 -115 -116 -80 -183 27 -54 103 -59 178 -13 42
27 62 63 61 114 -3 81 -82 122 -159 82z"/>
<path d="M2201 1294 c-54 -38 -69 -147 -25 -190 21 -22 31 -25 62 -19 52 9 81
31 99 72 17 43 11 90 -18 127 -24 31 -81 36 -118 10z"/>
<path d="M2495 1277 c-70 -39 -87 -119 -39 -176 70 -83 225 27 185 131 -26 69
-77 84 -146 45z"/>
<path d="M1579 976 c-81 -23 -152 -68 -229 -146 -126 -125 -181 -251 -183
-415 -1 -148 46 -227 155 -260 225 -66 487 109 571 381 22 70 23 72 69 89 26
9 72 32 104 51 31 19 58 34 60 34 2 0 -5 -23 -16 -51 -43 -109 -83 -273 -84
-346 -1 -77 12 -106 67 -147 69 -51 221 -3 344 109 l62 56 16 -38 c21 -51 60
-89 120 -121 44 -23 62 -26 145 -26 102 -1 167 16 250 61 111 62 180 125 180
166 0 12 -9 33 -18 45 l-18 24 -55 -47 c-145 -125 -299 -149 -378 -60 -54 62
-51 174 10 320 54 128 137 213 225 230 68 12 80 -27 39 -125 -14 -32 -26 -74
-27 -92 -3 -32 -2 -33 39 -36 42 -3 90 15 127 47 55 48 66 164 22 231 -60 91
-209 105 -363 33 -89 -41 -218 -175 -271 -280 -22 -46 -44 -104 -47 -130 -10
-74 -12 -78 -71 -137 -58 -60 -142 -109 -177 -104 -45 6 -35 62 68 348 34 96
69 199 76 229 13 52 13 54 -10 72 -27 22 -41 23 -111 8 -44 -9 -63 -22 -131
-88 -77 -74 -163 -131 -199 -131 -13 0 -19 11 -23 45 -11 74 -53 152 -100 183
-34 23 -53 27 -116 29 -42 1 -97 -4 -122 -11z m111 -100 c0 -2 -7 -20 -15 -39
-29 -69 -17 -132 33 -171 21 -17 24 -25 19 -65 -13 -110 -87 -236 -162 -275
-88 -46 -162 -18 -184 69 -41 164 52 390 190 459 44 22 119 36 119 22z"/>
</g>
</svg>
